<svg xmlns="http://www.w3.org/2000/svg" xmlns:xlink="http://www.w3.org/1999/xlink" xmlns:lucid="lucid" width="1556" height="1951.85"><g transform="translate(354 30.3333333333334)" lucid:page-tab-id="m7ViAwGOAfBp"><path d="M-500-500h2000v2500H-500z" fill="#fff"/><path d="M600 418.1a6 6 0 0 1 6-6h28a6 6 0 0 1 6 6v28a6 6 0 0 1-6 6h-28a6 6 0 0 1-6-6z" fill="#fff"/><path d="M603.28 412.75l.87-.36.9-.23.95-.07h2.8m3.73 0h5.6m3.74 0h5.6m3.73 0h2.8l.94.07.9.22.88.35m2.63 2.62l.36.87.23.92.07.94v2.8m0 3.73v5.6m0 3.73v5.6m0 3.74v2.8l-.07.94-.22.9-.35.88m-2.63 2.62l-.87.37-.9.22-.95.08h-2.8m-3.73 0h-5.6m-3.74 0h-5.6m-3.73 0H606l-.94-.08-.9-.2-.88-.38m-2.63-2.62l-.36-.87-.23-.9-.07-.95v-2.8m0-3.74v-5.6m0-3.73v-5.6m0-3.73v-2.8l.07-.94.22-.92.35-.87" stroke="#282c33" stroke-width="2" fill="none"/><path d="M640 327.17a6 6 0 0 1 6-6h109a6 6 0 0 1 6 6v28a6 6 0 0 1-6 6H646a6 6 0 0 1-6-6z" stroke="#000" stroke-opacity="0" stroke-width="2" fill="#ffdda6"/><path d="M20 141.72a6 6 0 0 1 6-6h314a6 6 0 0 1 6 6v28a6 6 0 0 1-6 6H26a6 6 0 0 1-6-6z" fill="#fff"/><path d="M23.28 136.37l.87-.36.9-.2.95-.08h3.04m4.05 0h6.07m4.05 0h6.08m4.05 0h6.08m4.05 0h6.08m4.05 0h6.08m4.05 0h6.08m4.06 0h6.08m4.05 0h6.07m4.05 0h6.08m4.05 0h6.08m4.05 0h6.08m4.05 0h6.1m4.04 0h6.08m4.05 0h6.07m4.06 0h6.07m4.06 0h6.07m4.06 0h6.07m4.05 0h6.08m4.05 0h6.1m4.04 0h6.08m4.05 0h6.08m4.05 0h6.08m4.05 0H262m4.06 0h6.07m4.06 0h6.06m4.06 0h6.07m4.05 0h6.07m4.05 0h6.08m4.05 0h6.08m4.05 0h6.08m4.06 0H340l.94.07.9.2.88.37m2.63 2.63l.36.87.23.9.07.95v2.8m0 3.73v5.6m0 3.74v5.6m0 3.72v2.8l-.07.94-.22.9-.35.88m-2.63 2.63l-.87.36-.9.22-.95.07h-3.04m-4.05 0h-6.07m-4.05 0h-6.08m-4.05 0h-6.08m-4.05 0h-6.07m-4.06 0h-6.08m-4.06 0h-6.07m-4.06 0h-6.08m-4.05 0h-6.07m-4.05 0h-6.08m-4.05 0h-6.08m-4.05 0h-6.08m-4.05 0h-6.1m-4.04 0h-6.08m-4.05 0h-6.07m-4.06 0h-6.07m-4.06 0h-6.07m-4.06 0h-6.07m-4.05 0h-6.08m-4.05 0h-6.1m-4.04 0h-6.08m-4.05 0h-6.08m-4.05 0h-6.08m-4.05 0H104m-4.06 0h-6.08m-4.05 0h-6.06m-4.06 0H73.6m-4.04 0h-6.08m-4.05 0h-6.08m-4.05 0h-6.08m-4.05 0H33.1m-4.06 0H26l-.94-.07-.9-.22-.88-.36m-2.63-2.63l-.36-.87-.23-.9-.07-.95v-2.8m0-3.73v-5.6m0-3.75v-5.6m0-3.73v-2.8l.07-.94.22-.9.35-.88" stroke="#282c33" stroke-width="2" fill="none"/><path d="M178.1 121.6H.5v-2.94h177.6zm144.4 0H209.16v-2.94H322.5z" stroke="#3a414a" stroke-width=".05" fill="#3a414a"/><path d="M-1 127.63l-13-7.5 13-7.5z" fill="#3a414a"/><path d="M.47 130.2l-17.42-10.07L.46 110.08zm-11.52-10.07l8.57 4.95v-9.9z" stroke="#3a414a" stroke-width=".05" fill="#3a414a"/><path d="M337 120.13l-13 7.5v-15z" fill="#3a414a"/><path d="M339.95 120.13l-17.4 10.06v-20.12zm-14.46 4.95l8.55-4.95-8.56-4.94z" stroke="#3a414a" stroke-width=".05" fill="#3a414a"/><use xlink:href="#a" transform="matrix(1,0,0,1,178.1114814814815,104.13442526733911) translate(0.005000000000000782 21.333333333333332)"/><path d="M-333 123.36a6 6 0 0 1 6-6h228a6 6 0 0 1 6 6v72.67a6 6 0 0 1-6 6h-228a6 6 0 0 1-6-6z" stroke="#000" stroke-opacity="0" stroke-width="2" fill="#fff" fill-opacity="0"/><use xlink:href="#b" transform="matrix(1,0,0,1,-328,122.36321240084544) translate(55.604938271604965 43.638888888888886)"/><use xlink:href="#c" transform="matrix(1,0,0,1,-328,122.36321240084544) translate(122.92592592592592 43.638888888888886)"/><path d="M-19 141.72a6 6 0 0 1 6-6h28a6 6 0 0 1 6 6v28a6 6 0 0 1-6 6h-28a6 6 0 0 1-6-6z" fill="#fff"/><path d="M-15.72 136.37l.87-.36.9-.2.95-.08h2.8m3.73 0h5.6m3.74 0h5.6m3.73 0H15l.94.07.9.2.88.37m2.63 2.63l.36.87.23.9.07.95v2.8m0 3.73v5.6m0 3.74v5.6m0 3.72v2.8l-.07.94-.22.9-.35.88m-2.63 2.63l-.87.36-.9.22-.95.07h-2.8m-3.73 0h-5.6m-3.74 0h-5.6m-3.73 0H-13l-.94-.07-.9-.22-.88-.36m-2.63-2.63l-.36-.87-.23-.9-.07-.95v-2.8m0-3.73v-5.6m0-3.75v-5.6m0-3.73v-2.8l.07-.94.22-.9.35-.88" stroke="#282c33" stroke-width="2" fill="none"/><path d="M181 226.3a6 6 0 0 1 6-6h188a6 6 0 0 1 6 6v28a6 6 0 0 1-6 6H187a6 6 0 0 1-6-6zM381 226.3a6 6 0 0 1 6-6h188a6 6 0 0 1 6 6v28a6 6 0 0 1-6 6H387a6 6 0 0 1-6-6z" stroke="#282c33" stroke-width="2" fill="#fff"/><path d="M181 226.3a6 6 0 0 1 6-6h28a6 6 0 0 1 6 6v28a6 6 0 0 1-6 6h-28a6 6 0 0 1-6-6zM221 226.3a6 6 0 0 1 6-6h28a6 6 0 0 1 6 6v28a6 6 0 0 1-6 6h-28a6 6 0 0 1-6-6z" stroke="#282c33" stroke-width="2" fill="#fff"/><path d="M270.76 260.24c0 5.52-4.48 10-10 10s-10-4.48-10-10c0-5.53 4.48-10 10-10s10 4.47 10 10z" stroke="#282c33" stroke-width="2"/><path d="M57.16 241.78H-16.5v-2.95h73.66zm102.22 0h-18.52v-2.95h18.52z" stroke="#3a414a" stroke-width=".05" fill="#3a414a"/><path d="M-16.46 241.78H-18v-2.95h1.54z" stroke="#3a414a" stroke-width=".05" fill="#3a414a"/><path d="M175.15 240.3l-14.27 4.64v-9.27z" fill="#3a414a"/><path d="M179.92 240.3l-20.5 6.67v-13.33zm-17.56 2.6l8-2.6-8-2.6z" stroke="#3a414a" stroke-width=".05" fill="#3a414a"/><use xlink:href="#d" transform="matrix(1,0,0,1,57.15717307049371,229.63678759915453) translate(0 14.222222222222223)"/><use xlink:href="#e" transform="matrix(1,0,0,1,57.15717307049371,229.63678759915453) translate(46.320987654320994 14.222222222222223)"/><path d="M361 327.17a6 6 0 0 1 6-6h188a6 6 0 0 1 6 6v28a6 6 0 0 1-6 6H367a6 6 0 0 1-6-6zM561 327.17a6 6 0 0 1 6-6h188a6 6 0 0 1 6 6v28a6 6 0 0 1-6 6H567a6 6 0 0 1-6-6z" stroke="#282c33" stroke-width="2" fill="#fff"/><path d="M361 327.17a6 6 0 0 1 6-6h28a6 6 0 0 1 6 6v28a6 6 0 0 1-6 6h-28a6 6 0 0 1-6-6zM401 327.17a6 6 0 0 1 6-6h28a6 6 0 0 1 6 6v28a6 6 0 0 1-6 6h-28a6 6 0 0 1-6-6z" stroke="#282c33" stroke-width="2" fill="#fff"/><path d="M450.76 361.1c0 5.52-4.48 10-10 10s-10-4.48-10-10c0-5.53 4.48-10 10-10s10 4.47 10 10z" stroke="#282c33" stroke-width="2"/><path d="M139.9 342.64H-16.5v-2.95h156.4zm159.48 0H223.6v-2.95h75.78z" stroke="#3a414a" stroke-width=".05" fill="#3a414a"/><path d="M-16.46 342.64H-18v-2.95h1.54z" stroke="#3a414a" stroke-width=".05" fill="#3a414a"/><path d="M315.15 341.17l-14.27 4.63v-9.27z" fill="#3a414a"/><path d="M319.92 341.17l-20.52 6.66V334.5zm-17.56 2.6l8-2.6-8-2.6z" stroke="#3a414a" stroke-width=".05" fill="#3a414a"/><use xlink:href="#d" transform="matrix(1,0,0,1,139.89082062485625,330.50000000000006) translate(0 14.222222222222223)"/><use xlink:href="#e" transform="matrix(1,0,0,1,139.89082062485625,330.50000000000006) translate(46.320987654320994 14.222222222222223)"/><path d="M22 726a6 6 0 0 1 6-6h468a6 6 0 0 1 6 6v28a6 6 0 0 1-6 6H28a6 6 0 0 1-6-6z" stroke="#282c33" stroke-width="2" fill="#fff"/><path d="M253.9 781.48H43.5v-2.96h210.4zm226.6 0H270.1v-2.96h210.4z" stroke="#3a414a" stroke-width=".05" fill="#3a414a"/><path d="M42 787.5L29 780l13-7.5z" fill="#3a414a"/><path d="M43.47 790.05L26.05 780l17.42-10.05zM31.95 780l8.57 4.95v-9.9z" stroke="#3a414a" stroke-width=".05" fill="#3a414a"/><path d="M495 780l-13 7.5v-15z" fill="#3a414a"/><path d="M497.95 780l-17.4 10.05v-20.1zm-14.46 4.95l8.55-4.95-8.56-4.95z" stroke="#3a414a" stroke-width=".05" fill="#3a414a"/><use xlink:href="#f" transform="matrix(1,0,0,1,253.88888888888877,764) translate(0.005000000000000782 21.333333333333332)"/><path d="M-140 726a6 6 0 0 1 6-6h108a6 6 0 0 1 6 6v28a6 6 0 0 1-6 6h-108a6 6 0 0 1-6-6z" stroke="#282c33" stroke-width="2" fill="#fff"/><path d="M-88.1 781.48h-34.4v-2.96h34.4zm50.6 0h-34.4v-2.96h34.4z" stroke="#3a414a" stroke-width=".05" fill="#3a414a"/><path d="M-124 787.5l-13-7.5 13-7.5z" fill="#3a414a"/><path d="M-122.53 790.05L-139.95 780l17.4-10.05zM-134.06 780l8.57 4.95v-9.9z" stroke="#3a414a" stroke-width=".05" fill="#3a414a"/><path d="M-23 780l-13 7.5v-15z" fill="#3a414a"/><path d="M-20.05 780l-17.42 10.05v-20.1zm-14.46 4.95l8.55-4.95-8.57-4.95z" stroke="#3a414a" stroke-width=".05" fill="#3a414a"/><use xlink:href="#g" transform="matrix(1,0,0,1,-88.11111111111134,764) translate(0.005000000000000782 21.333333333333332)"/><path d="M641 72.1V619" stroke="#282c33" stroke-width="2" stroke-linecap="round" fill="none"/><path d="M500 726a6 6 0 0 1 6-6h127a6 6 0 0 1 6 6v28a6 6 0 0 1-6 6H506a6 6 0 0 1-6-6z" stroke="#282c33" stroke-width="2" fill="#fff"/><path d="M561.9 781.48h-44.4v-2.96h44.4zm60.6 0h-44.4v-2.96h44.4z" stroke="#3a414a" stroke-width=".05" fill="#3a414a"/><path d="M516 787.5l-13-7.5 13-7.5z" fill="#3a414a"/><path d="M517.47 790.05L500.05 780l17.42-10.05zM505.95 780l8.56 4.95v-9.9z" stroke="#3a414a" stroke-width=".05" fill="#3a414a"/><path d="M637 780l-13 7.5v-15z" fill="#3a414a"/><path d="M639.95 780l-17.42 10.05v-20.1zm-14.47 4.95l8.57-4.95-8.56-4.95z" stroke="#3a414a" stroke-width=".05" fill="#3a414a"/><use xlink:href="#h" transform="matrix(1,0,0,1,561.8888888888887,764) translate(0.005000000000000782 21.333333333333332)"/><path d="M642 327.17a6 6 0 0 1 6-6h107a6 6 0 0 1 6 6v28a6 6 0 0 1-6 6H648a6 6 0 0 1-6-6z" stroke="#282c33" stroke-width="2" fill="#ffdda6"/><path d="M701.5 318.67v-32.5a6 6 0 0 0-6-6h-71.54a6 6 0 0 0-6 6v13.38" stroke="#3a414a" stroke-width="3" fill="none"/><path d="M702.98 320.17H700v-1.54H703z" stroke="#3a414a" stroke-width=".05" fill="#3a414a"/><path d="M617.96 315.3l-4.64-14.25h9.27z" stroke="#3a414a" stroke-width="3" fill="#3a414a"/><use xlink:href="#i" transform="matrix(1,0,0,1,660.914646518154,255.87097696669989) translate(0 14.222222222222223)"/><use xlink:href="#j" transform="matrix(1,0,0,1,660.914646518154,255.87097696669989) translate(35.55555555555556 14.222222222222223)"/><use xlink:href="#k" transform="matrix(1,0,0,1,660.914646518154,255.87097696669989) translate(64.09876543209876 14.222222222222223)"/><path d="M1060 418.1a6 6 0 0 1 6-6h109a6 6 0 0 1 6 6v28a6 6 0 0 1-6 6h-109a6 6 0 0 1-6-6z" stroke="#000" stroke-opacity="0" stroke-width="2" fill="#ffdda6"/><path d="M781 418.1a6 6 0 0 1 6-6h188a6 6 0 0 1 6 6v28a6 6 0 0 1-6 6H787a6 6 0 0 1-6-6z" stroke="#282c33" stroke-width="2" fill="#ffdda6"/><path d="M981 418.1a6 6 0 0 1 6-6h188a6 6 0 0 1 6 6v28a6 6 0 0 1-6 6H987a6 6 0 0 1-6-6z" stroke="#282c33" stroke-width="2" fill="#fff"/><path d="M781 418.1a6 6 0 0 1 6-6h28a6 6 0 0 1 6 6v28a6 6 0 0 1-6 6h-28a6 6 0 0 1-6-6zM821 418.1a6 6 0 0 1 6-6h28a6 6 0 0 1 6 6v28a6 6 0 0 1-6 6h-28a6 6 0 0 1-6-6z" stroke="#282c33" stroke-width="2" fill="#ffdda6"/><path d="M411.73 433.57H-16.5v-2.95h428.23zm347.65 0H495.43v-2.95h263.95z" stroke="#3a414a" stroke-width=".05" fill="#3a414a"/><path d="M-16.46 433.57H-18v-2.95h1.54z" stroke="#3a414a" stroke-width=".05" fill="#3a414a"/><path d="M775.15 432.1l-14.27 4.63v-9.27z" fill="#3a414a"/><path d="M779.92 432.1l-20.5 6.66v-13.33zm-17.56 2.6l8-2.6-8-2.6z" stroke="#3a414a" stroke-width=".05" fill="#3a414a"/><use xlink:href="#d" transform="matrix(1,0,0,1,411.72994830347614,421.43158120042295) translate(0 14.222222222222223)"/><use xlink:href="#e" transform="matrix(1,0,0,1,411.72994830347614,421.43158120042295) translate(46.320987654320994 14.222222222222223)"/><path d="M981 418.1a6 6 0 0 1 6-6h188a6 6 0 0 1 6 6v28a6 6 0 0 1-6 6H987a6 6 0 0 1-6-6z" stroke="#282c33" stroke-width="2" fill="#ffdda6"/><path d="M983.54 410.53V377.1a6 6 0 0 0-6-6H626a6 6 0 0 0-6 6v13.38" stroke="#3a414a" stroke-width="3" fill="none"/><path d="M985.02 411.4l-.18.04-1.02.42-.94.57-.8.7v-2.64H985z" stroke="#3a414a" stroke-width=".05" fill="#3a414a"/><path d="M620 406.24l-4.63-14.26h9.26z" stroke="#3a414a" stroke-width="3" fill="#3a414a"/><use xlink:href="#i" transform="matrix(1,0,0,1,854.2200219440628,345.7649645337499) translate(0 14.222222222222223)"/><use xlink:href="#j" transform="matrix(1,0,0,1,854.2200219440628,345.7649645337499) translate(35.55555555555556 14.222222222222223)"/><use xlink:href="#k" transform="matrix(1,0,0,1,854.2200219440628,345.7649645337499) translate(64.09876543209876 14.222222222222223)"/><path d="M861 418.1a6 6 0 0 1 6-6h108a6 6 0 0 1 6 6v28a6 6 0 0 1-6 6H867a6 6 0 0 1-6-6z" stroke="#282c33" stroke-width="2" fill="#ffdda6"/><path d="M870.76 452.03c0 5.52-4.48 10-10 10s-10-4.48-10-10 4.48-10 10-10 10 4.48 10 10z" stroke="#282c33" stroke-width="2"/><path d="M-313 247.17a6 6 0 0 1 6-6h228a6 6 0 0 1 6 6v208.86a6 6 0 0 1-6 6h-228a6 6 0 0 1-6-6z" fill="none"/><path d="M-73 462.03c-5.52 0-10-4.48-10-10V361.6c0-5.53-4.48-10-10-10 5.52 0 10-4.48 10-10v-90.43c0-5.53 4.48-10 10-10" stroke="#282c33" stroke-width="2" fill="none"/><use xlink:href="#l" transform="matrix(1,0,0,1,-308,246.16666666666663) translate(122.30864197530866 93.05555555555556)"/><use xlink:href="#m" transform="matrix(1,0,0,1,-308,246.16666666666663) translate(56.80246913580248 130.38888888888889)"/><path d="M499 701v118M-18 57.06V859" stroke="#282c33" stroke-width="2" stroke-linecap="round" fill="none"/><path d="M21 141.72a6 6 0 0 1 6-6h28a6 6 0 0 1 6 6v28a6 6 0 0 1-6 6H27a6 6 0 0 1-6-6z" fill="#fff"/><path d="M24.28 136.37l.87-.36.9-.2.95-.08h2.8m3.73 0h5.6m3.74 0h5.6m3.73 0H55l.94.07.9.2.88.37m2.63 2.63l.36.87.23.9.07.95v2.8m0 3.73v5.6m0 3.74v5.6m0 3.72v2.8l-.07.94-.22.9-.35.88m-2.63 2.63l-.87.36-.9.22-.95.07h-2.8m-3.73 0h-5.6m-3.74 0h-5.6m-3.73 0H27l-.94-.07-.9-.22-.88-.36m-2.63-2.63l-.36-.87-.23-.9-.07-.95v-2.8m0-3.73v-5.6m0-3.75v-5.6m0-3.73v-2.8l.07-.94.22-.9.35-.88" stroke="#282c33" stroke-width="2" fill="none"/><path d="M66 174.9c0 5.5-4.48 10-10 10s-10-4.5-10-10c0-5.54 4.48-10 10-10s10 4.46 10 10z" stroke="#282c33" stroke-width="2"/><path d="M600 327.17a6 6 0 0 1 6-6h28a6 6 0 0 1 6 6v28a6 6 0 0 1-6 6h-28a6 6 0 0 1-6-6z" fill="#fff"/><path d="M603.28 321.82l.87-.36.9-.22.95-.07h2.8m3.73 0h5.6m3.74 0h5.6m3.73 0h2.8l.94.07.9.22.88.36m2.63 2.62l.36.87.23.93.07.94v2.8m0 3.73v5.6m0 3.73v5.6m0 3.74v2.8l-.07.94-.22.92-.35.87m-2.63 2.6l-.87.37-.9.22-.95.07h-2.8m-3.73 0h-5.6m-3.74 0h-5.6m-3.73 0H606l-.94-.08-.9-.23-.88-.36m-2.63-2.6l-.36-.88-.23-.9-.07-.95v-2.8m0-3.74v-5.6m0-3.73v-5.6m0-3.73v-2.8l.07-.94.22-.92.35-.86" stroke="#282c33" stroke-width="2" fill="none"/><path d="M600 226.3a6 6 0 0 1 6-6h28a6 6 0 0 1 6 6v28a6 6 0 0 1-6 6h-28a6 6 0 0 1-6-6z" fill="#fff"/><path d="M603.28 220.96l.87-.36.9-.22.95-.08h2.8m3.73 0h5.6m3.74 0h5.6m3.73 0h2.8l.94.08.9.22.88.36m2.63 2.62l.36.87.23.92.07.93v2.8m0 3.74v5.6m0 3.73v5.6m0 3.73v2.8l-.07.94-.22.92-.35.87m-2.63 2.62l-.87.36-.9.23-.95.07h-2.8m-3.73 0h-5.6m-3.74 0h-5.6m-3.73 0H606l-.94-.07-.9-.22-.88-.35m-2.63-2.62l-.36-.87-.23-.92-.07-.94v-2.8m0-3.73v-5.6m0-3.73v-5.6m0-3.74v-2.8l.07-.94.22-.9.35-.88" stroke="#282c33" stroke-width="2" fill="none"/><use xlink:href="#n" transform="matrix(1,0,0,1,611.9999999999999,232.3034542658212) translate(-0.6419753086419728 24.888888888888886)"/><path d="M745.5 229.47H713a6 6 0 0 1-6-6V185.3a6 6 0 0 0-6-6h-75a6 6 0 0 0-6 6v13.38M745.46 229.47H747" stroke="#3a414a" stroke-width="3" fill="none"/><path d="M620 214.45l-4.63-14.27h9.26z" stroke="#3a414a" stroke-width="3" fill="#3a414a"/><use xlink:href="#i" transform="matrix(1,0,0,1,715,191.1433016458889) translate(0 14.222222222222223)"/><use xlink:href="#j" transform="matrix(1,0,0,1,715,191.1433016458889) translate(35.55555555555556 14.222222222222223)"/><use xlink:href="#k" transform="matrix(1,0,0,1,715,191.1433016458889) translate(64.09876543209876 14.222222222222223)"/><path d="M-333-3.67a6 6 0 0 1 6-6h228a6 6 0 0 1 6 6V69a6 6 0 0 1-6 6h-228a6 6 0 0 1-6-6z" fill="#fff" fill-opacity="0"/><use xlink:href="#o" transform="matrix(1,0,0,1,-328,-4.6666666666667425) translate(89.13580246913583 43.638888888888886)"/><use xlink:href="#p" transform="matrix(1,0,0,1,-328,-4.6666666666667425) translate(133.98765432098767 43.638888888888886)"/><path d="M40.8 120.23h-.94V9h.95z" stroke="#54c45e" stroke-width=".05" fill="#54c45e"/><path d="M40.33 133.72l-7.5-13h15z" fill="#54c45e"/><path d="M40.33 134.67L32 120.27l16.66-.02zm-6.67-13.46l6.67 11.57L47 121.2z" stroke="#54c45e" stroke-width=".05" fill="#54c45e"/><path stroke="#54c45e" stroke-width=".05" fill="#54c45e"/><use xlink:href="#q" transform="matrix(1,0,0,1,31.69135772327377,-28.3333333333334) translate(0 24.88888888888888)"/><path d="M7.47 120.23h-.94V9h.94z" stroke="#54c45e" stroke-width=".05" fill="#54c45e"/><path d="M7 133.72l-7.5-13h15z" fill="#54c45e"/><path d="M7 134.67l-8.32-14.4 16.64-.02zM.32 121.2L7 132.78l6.68-11.57z" stroke="#54c45e" stroke-width=".05" fill="#54c45e"/><path stroke="#54c45e" stroke-width=".05" fill="#54c45e"/><use xlink:href="#r" transform="matrix(1,0,0,1,-1.641975308641971,-28.332333333333395) translate(0 24.88888888888888)"/><path d="M627.48 121.23h-.96V10h.96z" stroke="#54c45e" stroke-width=".05" fill="#54c45e"/><path d="M627 134.72l-7.5-13h15z" fill="#54c45e"/><path d="M627 135.67l-8.32-14.4 16.64-.02zm-6.68-13.46l6.68 11.57 6.68-11.57z" stroke="#54c45e" stroke-width=".05" fill="#54c45e"/><path stroke="#54c45e" stroke-width=".05" fill="#54c45e"/><use xlink:href="#s" transform="matrix(1,0,0,1,580.0740740740741,-27.333428768577647) translate(0 24.88888888888888)"/><path d="M65 759.17c0 5.52-4.48 10-10 10s-10-4.48-10-10c0-5.53 4.48-10 10-10s10 4.47 10 10z" stroke="#282c33" stroke-width="2"/><path d="M-18 726a6 6 0 0 1 6-6h28a6 6 0 0 1 6 6v28a6 6 0 0 1-6 6h-28a6 6 0 0 1-6-6z" stroke="#282c33" stroke-width="2" fill="#fff"/><path d="M58.48 229.64h-1.32v21.33h1.32V859.5h-4.95V188.4h4.95z" stroke="#54c45e" stroke-width=".05" fill="#54c45e"/><path d="M56 875l-7.5-13h15z" fill="#54c45e"/><path d="M56 879.95l-11.8-20.42h23.6zm-3.2-15.47l3.2 5.57 3.2-5.56z" stroke="#54c45e" stroke-width=".05" fill="#54c45e"/><path d="M58.48 188.46h-4.95v-2.96l2.47.4 2.48-.4z" fill="#54c45e"/><path stroke="#54c45e" stroke-width=".05" fill="#54c45e"/><path d="M61 506a6 6 0 0 1 6-6h228a6 6 0 0 1 6 6v51.33a6 6 0 0 1-6 6H67a6 6 0 0 1-6-6z" stroke="#000" stroke-opacity="0" stroke-width="2" fill="#fff" fill-opacity="0"/><use xlink:href="#t" transform="matrix(1,0,0,1,65.99999999999977,505) translate(77 20.97222222222222)"/><use xlink:href="#u" transform="matrix(1,0,0,1,65.99999999999977,505) translate(27.320987654320987 42.30555555555556)"/><use xlink:href="#v" transform="matrix(1,0,0,1,65.99999999999977,505) translate(118.03703703703704 42.30555555555556)"/><path d="M-2.5 780h5.43a.07.07 0 0 1 .07.07.07.07 0 0 0 .07.07H8.5" stroke="#3a414a" stroke-width="3" fill="none"/><path d="M-17 780l13-7.5v15zM23 780.14l-13 7.5v-15z" stroke="#3a414a" stroke-width="3" fill="#3a414a"/><use xlink:href="#w" transform="matrix(1,0,0,1,-4.422276315057042,791.6339867265535) translate(0.004999999999999893 21.333333333333332)"/><path d="M745 32.3H-70.26v-3.94H745z" stroke="#54c45e" stroke-width=".05" fill="#54c45e"/><path d="M-72.26 34.97l-14.27-4.64 14.27-4.63z" fill="#54c45e"/><path d="M-70.3 37.7l-22.62-7.37 22.63-7.35zm-9.84-7.37l5.9 1.92v-3.83zM747 32.3h-2.05v-3.94H747z" stroke="#54c45e" stroke-width=".05" fill="#54c45e"/><path d="M250.76 626a6 6 0 0 1 6-6h468a6 6 0 0 1 6 6v28a6 6 0 0 1-6 6h-468a6 6 0 0 1-6-6z" stroke="#282c33" stroke-width="2" fill="#fff"/><use xlink:href="#x" transform="matrix(1,0,0,1,262.76068251373516,632) translate(176.64814814814815 24.888888888888886)"/><path d="M479.27 681.48H272.25v-2.96h207.02zm223.24 0h-207v-2.96h207z" stroke="#3a414a" stroke-width=".05" fill="#3a414a"/><path d="M270.75 687.5l-13-7.5 13-7.5z" fill="#3a414a"/><path d="M272.23 690.05L254.8 680l17.43-10.05zM260.7 680l8.58 4.95v-9.9z" stroke="#3a414a" stroke-width=".05" fill="#3a414a"/><path d="M717 680l-13 7.5v-15z" fill="#3a414a"/><path d="M719.95 680l-17.42 10.05v-20.1zm-14.47 4.95l8.57-4.95-8.56-4.95z" stroke="#3a414a" stroke-width=".05" fill="#3a414a"/><use xlink:href="#f" transform="matrix(1,0,0,1,479.26923014575647,664) translate(0.005000000000000782 21.333333333333332)"/><path d="M293.76 659.17c0 5.52-4.48 10-10 10s-10-4.48-10-10c0-5.53 4.48-10 10-10s10 4.47 10 10z" stroke="#282c33" stroke-width="2"/><path d="M97.56 641.48H-18.5v-2.96H97.56zm131.58 0h-47.87v-2.96h47.87z" stroke="#3a414a" stroke-width=".05" fill="#3a414a"/><path d="M-18.46 641.48H-20v-2.96h1.54z" stroke="#3a414a" stroke-width=".05" fill="#3a414a"/><path d="M244.9 640l-14.26 4.63v-9.26z" fill="#3a414a"/><path d="M249.68 640l-20.5 6.66v-13.32zm-17.56 2.6l8-2.6-8-2.6z" stroke="#3a414a" stroke-width=".05" fill="#3a414a"/><use xlink:href="#d" transform="matrix(1,0,0,1,97.5645007752732,629.3333333333334) translate(0 14.222222222222223)"/><use xlink:href="#e" transform="matrix(1,0,0,1,97.5645007752732,629.3333333333334) translate(46.320987654320994 14.222222222222223)"/><path d="M-18 726a6 6 0 0 1 6-6h28a6 6 0 0 1 6 6v28a6 6 0 0 1-6 6h-28a6 6 0 0 1-6-6z" stroke="#282c33" stroke-width="2" fill="#fff"/><path d="M642 627.5a6 6 0 0 1 6-6h76.76a6 6 0 0 1 6 6v28a6 6 0 0 1-6 6H648a6 6 0 0 1-6-6z" stroke="#282c33" stroke-width="2" fill="#ffdda6"/><path d="M686.38 619v-32.5a6 6 0 0 0-6-6H626a6 6 0 0 0-6 6v13.38" stroke="#3a414a" stroke-width="3" fill="none"/><path d="M687.86 620.5h-2.96v-1.54h2.96z" stroke="#3a414a" stroke-width=".05" fill="#3a414a"/><path d="M620 615.65l-4.63-14.27h9.26z" stroke="#3a414a" stroke-width="3" fill="#3a414a"/><use xlink:href="#i" transform="matrix(1,0,0,1,651.246576146687,556.7694794521498) translate(0 14.222222222222223)"/><use xlink:href="#j" transform="matrix(1,0,0,1,651.246576146687,556.7694794521498) translate(35.55555555555556 14.222222222222223)"/><use xlink:href="#k" transform="matrix(1,0,0,1,651.246576146687,556.7694794521498) translate(64.09876543209876 14.222222222222223)"/><path d="M600 627.5a6 6 0 0 1 6-6h28a6 6 0 0 1 6 6v28a6 6 0 0 1-6 6h-28a6 6 0 0 1-6-6z" fill="#fff"/><path d="M603.28 622.15l.87-.36.9-.23.95-.07h2.8m3.73 0h5.6m3.74 0h5.6m3.73 0h2.8l.94.07.9.22.88.35m2.63 2.63l.36.87.23.9.07.95v2.8m0 3.73v5.6m0 3.74v5.6m0 3.73v2.8l-.07.94-.22.9-.35.88m-2.63 2.63l-.87.36-.9.23-.95.07h-2.8m-3.73 0h-5.6m-3.74 0h-5.6m-3.73 0H606l-.94-.07-.9-.22-.88-.35m-2.63-2.63l-.36-.87-.23-.9-.07-.95v-2.8m0-3.73v-5.6m0-3.74v-5.6m0-3.73v-2.8l.07-.94.22-.9.35-.88" stroke="#282c33" stroke-width="2" fill="none"/><path d="M643 521v268" stroke="#282c33" stroke-width="2" stroke-linecap="round" fill="none"/><path d="M600 1467.77a6 6 0 0 1 6-6h28a6 6 0 0 1 6 6v28a6 6 0 0 1-6 6h-28a6 6 0 0 1-6-6z" fill="#fff"/><path d="M603.28 1462.42l.87-.36.9-.22.95-.07h2.8m3.73 0h5.6m3.74 0h5.6m3.73 0h2.8l.94.07.9.22.88.36m2.63 2.62l.36.87.23.93.07.94v2.8m0 3.73v5.6m0 3.73v5.6m0 3.73v2.8l-.07.94-.22.92-.35.87m-2.63 2.6l-.87.37-.9.22-.95.07h-2.8m-3.73 0h-5.6m-3.74 0h-5.6m-3.73 0H606l-.94-.08-.9-.23-.88-.36m-2.63-2.6l-.36-.88-.23-.92-.07-.93v-2.8m0-3.74v-5.6m0-3.73v-5.6m0-3.73v-2.8l.07-.94.22-.92.35-.86" stroke="#282c33" stroke-width="2" fill="none"/><path d="M640 1376.83a6 6 0 0 1 6-6h109a6 6 0 0 1 6 6v28a6 6 0 0 1-6 6H646a6 6 0 0 1-6-6z" stroke="#000" stroke-opacity="0" stroke-width="2" fill="#ffdda6"/><path d="M20 1191.4a6 6 0 0 1 6-6h448a6 6 0 0 1 6 6v28a6 6 0 0 1-6 6H26a6 6 0 0 1-6-6z" stroke="#282c33" stroke-width="2" fill="#fff"/><use xlink:href="#x" transform="matrix(1,0,0,1,32,1197.3867875991546) translate(166.14814814814815 24.888888888888886)"/><path d="M283.3 1151.44H37.5v-2.95h245.8zm179.2 0h-163v-2.95h163z" stroke="#3a414a" stroke-width=".05" fill="#3a414a"/><path d="M36 1157.47l-13-7.5 13-7.5z" fill="#3a414a"/><path d="M37.47 1160.03l-17.42-10.06 17.42-10.06zm-11.52-10.06l8.57 4.94v-9.88z" stroke="#3a414a" stroke-width=".05" fill="#3a414a"/><path d="M477 1149.97l-13 7.5v-15z" fill="#3a414a"/><path d="M479.95 1149.97l-17.4 10.06v-20.12zm-14.46 4.94l8.55-4.93-8.56-4.94z" stroke="#3a414a" stroke-width=".05" fill="#3a414a"/><use xlink:href="#f" transform="matrix(1,0,0,1,283.2888888888889,1133.970120932488) translate(0.005000000000000782 21.333333333333332)"/><path d="M-333 1173.03a6 6 0 0 1 6-6h228a6 6 0 0 1 6 6v72.67a6 6 0 0 1-6 6h-228a6 6 0 0 1-6-6z" stroke="#000" stroke-opacity="0" stroke-width="2" fill="#fff" fill-opacity="0"/><use xlink:href="#y" transform="matrix(1,0,0,1,-328,1172.0298790675122) translate(122.83950617283952 27.232638888888886)"/><use xlink:href="#z" transform="matrix(1,0,0,1,-328,1172.0298790675122) translate(91.9876543209877 64.56597222222221)"/><use xlink:href="#A" transform="matrix(1,0,0,1,-328,1172.0298790675122) translate(169.5925925925926 64.56597222222221)"/><path d="M181 1275.97a6 6 0 0 1 6-6h188a6 6 0 0 1 6 6v28a6 6 0 0 1-6 6H187a6 6 0 0 1-6-6zM381 1275.97a6 6 0 0 1 6-6h188a6 6 0 0 1 6 6v28a6 6 0 0 1-6 6H387a6 6 0 0 1-6-6z" stroke="#282c33" stroke-width="2" fill="#fff"/><path d="M181 1275.97a6 6 0 0 1 6-6h28a6 6 0 0 1 6 6v28a6 6 0 0 1-6 6h-28a6 6 0 0 1-6-6zM221 1275.97a6 6 0 0 1 6-6h28a6 6 0 0 1 6 6v28a6 6 0 0 1-6 6h-28a6 6 0 0 1-6-6z" stroke="#282c33" stroke-width="2" fill="#fff"/><path d="M270.76 1309.9c0 5.52-4.48 10-10 10s-10-4.48-10-10 4.48-10 10-10 10 4.48 10 10z" stroke="#282c33" stroke-width="2"/><path d="M57.16 1291.44H-16.5v-2.95h73.66zm102.22 0h-18.52v-2.95h18.52z" stroke="#3a414a" stroke-width=".05" fill="#3a414a"/><path d="M-16.46 1291.44H-18v-2.95h1.54z" stroke="#3a414a" stroke-width=".05" fill="#3a414a"/><path d="M175.15 1289.97l-14.27 4.63v-9.26z" fill="#3a414a"/><path d="M179.92 1289.97l-20.5 6.67v-13.34zm-17.56 2.6l8-2.6-8-2.6z" stroke="#3a414a" stroke-width=".05" fill="#3a414a"/><use xlink:href="#d" transform="matrix(1,0,0,1,57.15717307049371,1279.3034542658213) translate(0 14.222222222222223)"/><use xlink:href="#e" transform="matrix(1,0,0,1,57.15717307049371,1279.3034542658213) translate(46.320987654320994 14.222222222222223)"/><path d="M361 1376.83a6 6 0 0 1 6-6h188a6 6 0 0 1 6 6v28a6 6 0 0 1-6 6H367a6 6 0 0 1-6-6zM561 1376.83a6 6 0 0 1 6-6h188a6 6 0 0 1 6 6v28a6 6 0 0 1-6 6H567a6 6 0 0 1-6-6z" stroke="#282c33" stroke-width="2" fill="#fff"/><path d="M361 1376.83a6 6 0 0 1 6-6h28a6 6 0 0 1 6 6v28a6 6 0 0 1-6 6h-28a6 6 0 0 1-6-6zM401 1376.83a6 6 0 0 1 6-6h28a6 6 0 0 1 6 6v28a6 6 0 0 1-6 6h-28a6 6 0 0 1-6-6z" stroke="#282c33" stroke-width="2" fill="#fff"/><path d="M450.76 1410.77c0 5.52-4.48 10-10 10s-10-4.48-10-10c0-5.53 4.48-10 10-10s10 4.47 10 10z" stroke="#282c33" stroke-width="2"/><path d="M139.9 1392.3H-16.5v-2.94h156.4zm159.48 0H223.6v-2.94h75.78z" stroke="#3a414a" stroke-width=".05" fill="#3a414a"/><path d="M-16.46 1392.3H-18v-2.94h1.54z" stroke="#3a414a" stroke-width=".05" fill="#3a414a"/><path d="M315.15 1390.83l-14.27 4.64v-9.27z" fill="#3a414a"/><path d="M319.92 1390.83l-20.52 6.67v-13.33zm-17.56 2.6l8-2.6-8-2.6z" stroke="#3a414a" stroke-width=".05" fill="#3a414a"/><use xlink:href="#d" transform="matrix(1,0,0,1,139.89082062485625,1380.1666666666667) translate(0 14.222222222222223)"/><use xlink:href="#e" transform="matrix(1,0,0,1,139.89082062485625,1380.1666666666667) translate(46.320987654320994 14.222222222222223)"/><path d="M23 1715.68a6 6 0 0 1 6-6h468a6 6 0 0 1 6 6v28a6 6 0 0 1-6 6H29a6 6 0 0 1-6-6z" stroke="#282c33" stroke-width="2" fill="#fff"/><path d="M254.9 1771.16H44.5v-2.95h210.4zm226.6 0H271.1v-2.95h210.4z" stroke="#3a414a" stroke-width=".05" fill="#3a414a"/><path d="M43 1777.18l-13-7.5 13-7.5z" fill="#3a414a"/><path d="M44.47 1779.74l-17.42-10.06 17.42-10.05zm-11.52-10.06l8.56 4.95.02-9.9z" stroke="#3a414a" stroke-width=".05" fill="#3a414a"/><path d="M496 1769.68l-13 7.5v-15z" fill="#3a414a"/><path d="M498.95 1769.68l-17.42 10.06v-20.1zm-14.47 4.95l8.57-4.95-8.57-4.94z" stroke="#3a414a" stroke-width=".05" fill="#3a414a"/><use xlink:href="#f" transform="matrix(1,0,0,1,254.888888888889,1753.6836717150288) translate(0.005000000000000782 21.333333333333332)"/><path d="M-139 1715.68a6 6 0 0 1 6-6h108a6 6 0 0 1 6 6v28a6 6 0 0 1-6 6h-108a6 6 0 0 1-6-6z" stroke="#282c33" stroke-width="2" fill="#fff"/><path d="M-87.1 1771.16h-34.4v-2.95h34.4zm50.6 0h-34.4v-2.95h34.4z" stroke="#3a414a" stroke-width=".05" fill="#3a414a"/><path d="M-123 1777.18l-13-7.5 13-7.5z" fill="#3a414a"/><path d="M-121.53 1779.74l-17.42-10.06 17.4-10.05zm-11.52-10.06l8.57 4.95v-9.9z" stroke="#3a414a" stroke-width=".05" fill="#3a414a"/><path d="M-22 1769.68l-13 7.5v-15z" fill="#3a414a"/><path d="M-19.05 1769.68l-17.42 10.06v-20.1zm-14.46 4.95l8.55-4.95-8.57-4.94z" stroke="#3a414a" stroke-width=".05" fill="#3a414a"/><use xlink:href="#g" transform="matrix(1,0,0,1,-87.1111111111112,1753.6836717150288) translate(0.005000000000000782 21.333333333333332)"/><path d="M641 1121.76V1869" stroke="#282c33" stroke-width="2" stroke-linecap="round" fill="none"/><path d="M501 1715.68a6 6 0 0 1 6-6h127a6 6 0 0 1 6 6v28a6 6 0 0 1-6 6H507a6 6 0 0 1-6-6z" stroke="#282c33" stroke-width="2" fill="#fff"/><path d="M562.9 1771.16h-44.4v-2.95h44.4zm60.6 0h-44.4v-2.95h44.4z" stroke="#3a414a" stroke-width=".05" fill="#3a414a"/><path d="M517 1777.18l-13-7.5 13-7.5z" fill="#3a414a"/><path d="M518.47 1779.74l-17.42-10.06 17.42-10.05zm-11.52-10.06l8.56 4.95v-9.9z" stroke="#3a414a" stroke-width=".05" fill="#3a414a"/><path d="M638 1769.68l-13 7.5v-15z" fill="#3a414a"/><path d="M640.95 1769.68l-17.42 10.06v-20.1zm-14.47 4.95l8.57-4.95-8.57-4.94z" stroke="#3a414a" stroke-width=".05" fill="#3a414a"/><use xlink:href="#h" transform="matrix(1,0,0,1,562.888888888889,1753.6836717150286) translate(0.005000000000000782 21.333333333333332)"/><path d="M642 1376.83a6 6 0 0 1 6-6h107a6 6 0 0 1 6 6v28a6 6 0 0 1-6 6H648a6 6 0 0 1-6-6z" stroke="#282c33" stroke-width="2" fill="#ffdda6"/><path d="M701.5 1368.33v-32.5a6 6 0 0 0-6-6h-71.54a6 6 0 0 0-6 6v13.38" stroke="#3a414a" stroke-width="3" fill="none"/><path d="M702.98 1369.83H700v-1.53H703z" stroke="#3a414a" stroke-width=".05" fill="#3a414a"/><path d="M617.96 1364.98l-4.64-14.27h9.27z" stroke="#3a414a" stroke-width="3" fill="#3a414a"/><use xlink:href="#i" transform="matrix(1,0,0,1,660.9146465181541,1305.5376436333665) translate(0 14.222222222222223)"/><use xlink:href="#j" transform="matrix(1,0,0,1,660.9146465181541,1305.5376436333665) translate(35.55555555555556 14.222222222222223)"/><use xlink:href="#k" transform="matrix(1,0,0,1,660.9146465181541,1305.5376436333665) translate(64.09876543209876 14.222222222222223)"/><path d="M1060 1467.77a6 6 0 0 1 6-6h109a6 6 0 0 1 6 6v28a6 6 0 0 1-6 6h-109a6 6 0 0 1-6-6z" stroke="#000" stroke-opacity="0" stroke-width="2" fill="#ffdda6"/><path d="M781 1467.77a6 6 0 0 1 6-6h188a6 6 0 0 1 6 6v28a6 6 0 0 1-6 6H787a6 6 0 0 1-6-6z" stroke="#282c33" stroke-width="2" fill="#ffdda6"/><path d="M981 1467.77a6 6 0 0 1 6-6h188a6 6 0 0 1 6 6v28a6 6 0 0 1-6 6H987a6 6 0 0 1-6-6z" stroke="#282c33" stroke-width="2" fill="#fff"/><path d="M781 1467.77a6 6 0 0 1 6-6h28a6 6 0 0 1 6 6v28a6 6 0 0 1-6 6h-28a6 6 0 0 1-6-6zM821 1467.77a6 6 0 0 1 6-6h28a6 6 0 0 1 6 6v28a6 6 0 0 1-6 6h-28a6 6 0 0 1-6-6z" stroke="#282c33" stroke-width="2" fill="#ffdda6"/><path d="M411.73 1483.24H-16.5v-2.95h428.23zm347.65 0H495.43v-2.95h263.95z" stroke="#3a414a" stroke-width=".05" fill="#3a414a"/><path d="M-16.46 1483.24H-18v-2.95h1.54z" stroke="#3a414a" stroke-width=".05" fill="#3a414a"/><path d="M775.15 1481.77l-14.27 4.63v-9.27z" fill="#3a414a"/><path d="M779.92 1481.77l-20.5 6.66v-13.33zm-17.56 2.6l8-2.6-8-2.6z" stroke="#3a414a" stroke-width=".05" fill="#3a414a"/><use xlink:href="#d" transform="matrix(1,0,0,1,411.72994830347614,1471.0982478670896) translate(0 14.222222222222223)"/><use xlink:href="#e" transform="matrix(1,0,0,1,411.72994830347614,1471.0982478670896) translate(46.320987654320994 14.222222222222223)"/><path d="M981 1467.77a6 6 0 0 1 6-6h188a6 6 0 0 1 6 6v28a6 6 0 0 1-6 6H987a6 6 0 0 1-6-6z" stroke="#282c33" stroke-width="2" fill="#ffdda6"/><path d="M983.54 1460.2v-33.43a6 6 0 0 0-6-6H626a6 6 0 0 0-6 6v13.38" stroke="#3a414a" stroke-width="3" fill="none"/><path d="M985.02 1461.06l-.18.05-1.02.43-.94.57-.8.7v-2.64H985z" stroke="#3a414a" stroke-width=".05" fill="#3a414a"/><path d="M620 1455.9l-4.63-14.26h9.26z" stroke="#3a414a" stroke-width="3" fill="#3a414a"/><use xlink:href="#i" transform="matrix(1,0,0,1,854.2200219440629,1395.4316312004164) translate(0 14.222222222222223)"/><use xlink:href="#j" transform="matrix(1,0,0,1,854.2200219440629,1395.4316312004164) translate(35.55555555555556 14.222222222222223)"/><use xlink:href="#k" transform="matrix(1,0,0,1,854.2200219440629,1395.4316312004164) translate(64.09876543209876 14.222222222222223)"/><path d="M861 1467.77a6 6 0 0 1 6-6h108a6 6 0 0 1 6 6v28a6 6 0 0 1-6 6H867a6 6 0 0 1-6-6z" stroke="#282c33" stroke-width="2" fill="#ffdda6"/><path d="M870.76 1501.7c0 5.52-4.48 10-10 10s-10-4.48-10-10c0-5.53 4.48-10 10-10s10 4.47 10 10z" stroke="#282c33" stroke-width="2"/><path d="M-313 1296.83a6 6 0 0 1 6-6h228a6 6 0 0 1 6 6v319.35a6 6 0 0 1-6 6h-228a6 6 0 0 1-6-6z" fill="none"/><path d="M-73 1622.18c-5.52 0-10-4.47-10-10V1466.5c0-5.5-4.48-10-10-10 5.52 0 10-4.47 10-10v-145.67c0-5.52 4.48-10 10-10" stroke="#282c33" stroke-width="2" fill="none"/><use xlink:href="#B" transform="matrix(1,0,0,1,-308,1295.8333333333335) translate(48.16049382716051 167.22222222222223)"/><use xlink:href="#m" transform="matrix(1,0,0,1,-308,1295.8333333333335) translate(56.80246913580248 167.22222222222223)"/><path d="M500 1690.68v118M-18 1106.73V1849" stroke="#282c33" stroke-width="2" stroke-linecap="round" fill="none"/><path d="M21 1191.4a6 6 0 0 1 6-6h28a6 6 0 0 1 6 6v28a6 6 0 0 1-6 6H27a6 6 0 0 1-6-6z" fill="#fff"/><path d="M24.28 1186.04l.87-.36.9-.22.95-.07h2.8m3.73 0h5.6m3.74 0h5.6m3.73 0H55l.94.06.9.22.88.36m2.63 2.62l.36.87.23.92.07.94v2.8m0 3.72v5.6m0 3.73v5.6m0 3.74v2.8l-.07.92-.22.92-.35.87m-2.63 2.63l-.87.36-.9.2-.95.1h-2.8m-3.73 0h-5.6m-3.74 0h-5.6m-3.73 0H27l-.94-.1-.9-.2-.88-.37m-2.63-2.62l-.36-.86-.23-.9-.07-.95v-2.8m0-3.75v-5.6m0-3.73v-5.6m0-3.73v-2.8l.07-.95.22-.92.35-.87" stroke="#282c33" stroke-width="2" fill="none"/><path d="M66 1224.55c0 5.53-4.48 10-10 10s-10-4.47-10-10c0-5.52 4.48-10 10-10s10 4.48 10 10z" stroke="#282c33" stroke-width="2"/><path d="M600 1376.83a6 6 0 0 1 6-6h28a6 6 0 0 1 6 6v28a6 6 0 0 1-6 6h-28a6 6 0 0 1-6-6z" fill="#fff"/><path d="M603.28 1371.5l.87-.37.9-.22.95-.07h2.8m3.73 0h5.6m3.74 0h5.6m3.73 0h2.8l.94.08.9.23.88.36m2.63 2.6l.36.88.23.9.07.95v2.8m0 3.74v5.6m0 3.73v5.6m0 3.73v2.8l-.07.94-.22.92-.35.86m-2.63 2.62l-.87.36-.9.22-.95.07h-2.8m-3.73 0h-5.6m-3.74 0h-5.6m-3.73 0H606l-.94-.07-.9-.22-.88-.36m-2.63-2.62l-.36-.87-.23-.93-.07-.94v-2.8m0-3.73v-5.6m0-3.73v-5.6m0-3.74v-2.8l.07-.93.22-.92.35-.87" stroke="#282c33" stroke-width="2" fill="none"/><path d="M600 1275.97a6 6 0 0 1 6-6h28a6 6 0 0 1 6 6v28a6 6 0 0 1-6 6h-28a6 6 0 0 1-6-6z" fill="#fff"/><path d="M603.28 1270.62l.87-.36.9-.22.95-.07h2.8m3.73 0h5.6m3.74 0h5.6m3.73 0h2.8l.94.07.9.22.88.36m2.63 2.63l.36.87.23.9.07.95v2.8m0 3.73v5.6m0 3.74v5.6m0 3.73v2.8l-.07.94-.22.92-.35.87m-2.63 2.62l-.87.36-.9.22-.95.07h-2.8m-3.73 0h-5.6m-3.74 0h-5.6m-3.73 0H606l-.94-.07-.9-.22-.88-.36m-2.63-2.63l-.36-.88-.23-.9-.07-.95v-2.8m0-3.73v-5.6m0-3.74v-5.6m0-3.73v-2.8l.07-.94.22-.9.35-.88" stroke="#282c33" stroke-width="2" fill="none"/><use xlink:href="#n" transform="matrix(1,0,0,1,611.9999999999998,1281.970120932488) translate(-0.6419753086419728 24.888888888888886)"/><path d="M745.5 1279.14H713a6 6 0 0 1-6-6v-38.17a6 6 0 0 0-6-6h-75a6 6 0 0 0-6 6v13.38M745.46 1279.14H747" stroke="#3a414a" stroke-width="3" fill="none"/><path d="M620 1264.12l-4.63-14.27h9.26z" stroke="#3a414a" stroke-width="3" fill="#3a414a"/><use xlink:href="#i" transform="matrix(1,0,0,1,715,1240.8099683125554) translate(0 14.222222222222223)"/><use xlink:href="#j" transform="matrix(1,0,0,1,715,1240.8099683125554) translate(35.55555555555556 14.222222222222223)"/><use xlink:href="#k" transform="matrix(1,0,0,1,715,1240.8099683125554) translate(64.09876543209876 14.222222222222223)"/><path d="M-333 1046a6 6 0 0 1 6-6h228a6 6 0 0 1 6 6v72.67a6 6 0 0 1-6 6h-228a6 6 0 0 1-6-6z" fill="#fff" fill-opacity="0"/><use xlink:href="#o" transform="matrix(1,0,0,1,-328,1045.0000000000002) translate(89.13580246913583 43.638888888888886)"/><use xlink:href="#p" transform="matrix(1,0,0,1,-328,1045.0000000000002) translate(133.98765432098767 43.638888888888886)"/><path d="M40.8 1169.9h-.94v-111.23h.95z" stroke="#54c45e" stroke-width=".05" fill="#54c45e"/><path d="M40.33 1183.4l-7.5-13h15z" fill="#54c45e"/><path d="M40.33 1184.34L32 1169.92h16.66zm-6.67-13.47l6.67 11.57 6.68-11.57z" stroke="#54c45e" stroke-width=".05" fill="#54c45e"/><path stroke="#54c45e" stroke-width=".05" fill="#54c45e"/><use xlink:href="#q" transform="matrix(1,0,0,1,31.69135772327383,1021.3343333333333) translate(0 24.88888888888888)"/><path d="M7.47 1169.9h-.94v-111.23h.94z" stroke="#54c45e" stroke-width=".05" fill="#54c45e"/><path d="M7 1183.4l-7.5-13h15z" fill="#54c45e"/><path d="M7 1184.34l-8.32-14.42h16.64zm-6.68-13.47L7 1182.44l6.68-11.57z" stroke="#54c45e" stroke-width=".05" fill="#54c45e"/><path stroke="#54c45e" stroke-width=".05" fill="#54c45e"/><use xlink:href="#r" transform="matrix(1,0,0,1,-1.641975308641971,1021.3343333333333) translate(0 24.88888888888888)"/><path d="M627.48 1170.9h-.96v-111.23h.96z" stroke="#54c45e" stroke-width=".05" fill="#54c45e"/><path d="M627 1184.4l-7.5-13h15z" fill="#54c45e"/><path d="M627 1185.34l-8.32-14.42h16.64zm-6.68-13.47l6.68 11.57 6.68-11.57z" stroke="#54c45e" stroke-width=".05" fill="#54c45e"/><path stroke="#54c45e" stroke-width=".05" fill="#54c45e"/><g><use xlink:href="#s" transform="matrix(1,0,0,1,580.0740740740741,1022.3332378980891) translate(0 24.88888888888888)"/></g><path d="M66 1748.85c0 5.52-4.48 10-10 10s-10-4.48-10-10 4.48-10 10-10 10 4.48 10 10z" stroke="#282c33" stroke-width="2"/><path d="M-17 1715.68a6 6 0 0 1 6-6h28a6 6 0 0 1 6 6v28a6 6 0 0 1-6 6h-28a6 6 0 0 1-6-6z" stroke="#282c33" stroke-width="2" fill="#fff"/><path d="M58.48 1279.3h-1.32v21.34h1.32v516.05h-4.95v-578.63h4.95z" stroke="#54c45e" stroke-width=".05" fill="#54c45e"/><path d="M56 1832.18l-7.5-13h15z" fill="#54c45e"/><path d="M56 1837.13l-11.8-20.4h23.6zm-3.2-15.46l3.2 5.56 3.2-5.56z" stroke="#54c45e" stroke-width=".05" fill="#54c45e"/><path d="M58.48 1238.13h-4.95v-2.96l2.47.4 2.48-.4z" fill="#54c45e"/><path stroke="#54c45e" stroke-width=".05" fill="#54c45e"/><path d="M-64 1843.18a6 6 0 0 1 6-6h228a6 6 0 0 1 6 6v51.34a6 6 0 0 1-6 6H-58a6 6 0 0 1-6-6z" stroke="#000" stroke-opacity="0" stroke-width="2" fill="#fff" fill-opacity="0"/><g><use xlink:href="#t" transform="matrix(1,0,0,1,-59,1842.1836717150286) translate(77 20.97222222222222)"/><use xlink:href="#u" transform="matrix(1,0,0,1,-59,1842.1836717150286) translate(27.320987654320987 42.30555555555556)"/><use xlink:href="#v" transform="matrix(1,0,0,1,-59,1842.1836717150286) translate(118.03703703703704 42.30555555555556)"/></g><path d="M-2.5 1769.83h12" stroke="#3a414a" stroke-width="3" fill="none"/><path d="M-17 1769.83l13-7.5v15zM24 1769.83l-13 7.5v-15z" stroke="#3a414a" stroke-width="3" fill="#3a414a"/><g><use xlink:href="#w" transform="matrix(1,0,0,1,-3.907407407407403,1781.325052112772) translate(0.004999999999999893 21.333333333333332)"/></g><path d="M745 1081.97H-70.26v-3.94H745z" stroke="#54c45e" stroke-width=".05" fill="#54c45e"/><path d="M-72.26 1084.63l-14.27-4.63 14.27-4.63z" fill="#54c45e"/><path d="M-70.3 1087.35L-92.9 1080l22.63-7.35zm-9.84-7.35l5.9 1.92v-3.84zM747 1081.97h-2.05v-3.94H747z" stroke="#54c45e" stroke-width=".05" fill="#54c45e"/><path d="M-17 1715.68a6 6 0 0 1 6-6h28a6 6 0 0 1 6 6v28a6 6 0 0 1-6 6h-28a6 6 0 0 1-6-6zM239 1578.25a6 6 0 0 1 6-6h188a6 6 0 0 1 6 6v28a6 6 0 0 1-6 6H245a6 6 0 0 1-6-6zM439 1578.25a6 6 0 0 1 6-6h188a6 6 0 0 1 6 6v28a6 6 0 0 1-6 6H445a6 6 0 0 1-6-6z" stroke="#282c33" stroke-width="2" fill="#fff"/><path d="M239 1578.25a6 6 0 0 1 6-6h28a6 6 0 0 1 6 6v28a6 6 0 0 1-6 6h-28a6 6 0 0 1-6-6zM279 1578.25a6 6 0 0 1 6-6h28a6 6 0 0 1 6 6v28a6 6 0 0 1-6 6h-28a6 6 0 0 1-6-6z" stroke="#282c33" stroke-width="2" fill="#fff"/><path d="M328.76 1612.18c0 5.53-4.48 10-10 10s-10-4.47-10-10c0-5.52 4.48-10 10-10s10 4.48 10 10z" stroke="#282c33" stroke-width="2"/><path d="M92.25 1593.73H-14.5v-2.95H92.25zm125.13 0h-41.43v-2.95h41.43z" stroke="#3a414a" stroke-width=".05" fill="#3a414a"/><path d="M-14.46 1593.73H-16v-2.95h1.54z" stroke="#3a414a" stroke-width=".05" fill="#3a414a"/><path d="M233.15 1592.25l-14.27 4.64v-9.28z" fill="#3a414a"/><path d="M237.92 1592.25l-20.5 6.67v-13.33zm-17.56 2.6l8-2.6-8-2.6z" stroke="#3a414a" stroke-width=".05" fill="#3a414a"/><g><use xlink:href="#d" transform="matrix(1,0,0,1,92.2506423183719,1581.5853738479398) translate(0 14.222222222222223)"/><use xlink:href="#e" transform="matrix(1,0,0,1,92.2506423183719,1581.5853738479398) translate(46.320987654320994 14.222222222222223)"/></g><defs><path fill="#333" d="M182-182c0 78-84 86-111 141h115V0H12c-6-101 99-100 120-180 1-22-12-31-33-32-23 0-32 14-35 34l-49-3c5-45 32-70 84-70 51 0 83 22 83 69" id="C"/><path fill="#333" d="M135-194c53 0 70 44 70 98 0 56-19 98-73 100-31 1-45-17-59-34 3 33 2 69 2 105H25l-1-265h48c2 10 0 23 3 31 11-24 29-35 60-35zM114-30c33 0 39-31 40-66 0-38-9-64-40-64-56 0-55 130 0 130" id="D"/><g id="a"><use transform="matrix(0.07407407407407407,0,0,0.07407407407407407,0,0)" xlink:href="#C"/><use transform="matrix(0.07407407407407407,0,0,0.07407407407407407,14.814814814814813,0)" xlink:href="#D"/></g><path fill="#3a414a" d="M240 0l2-218c-23 76-54 145-80 218h-23L58-218 59 0H30v-248h44l77 211c21-75 51-140 76-211h43V0h-30" id="E"/><path fill="#3a414a" d="M141-36C126-15 110 5 73 4 37 3 15-17 15-53c-1-64 63-63 125-63 3-35-9-54-41-54-24 1-41 7-42 31l-33-3c5-37 33-52 76-52 45 0 72 20 72 64v82c-1 20 7 32 28 27v20c-31 9-61-2-59-35zM48-53c0 20 12 33 32 33 41-3 63-29 60-74-43 2-92-5-92 41" id="F"/><path fill="#3a414a" d="M141 0L90-78 38 0H4l68-98-65-92h35l48 74 47-74h35l-64 92 68 98h-35" id="G"/><g id="b"><use transform="matrix(0.08641975308641973,0,0,0.08641975308641973,0,0)" xlink:href="#E"/><use transform="matrix(0.08641975308641973,0,0,0.08641975308641973,25.8395061728395,0)" xlink:href="#F"/><use transform="matrix(0.08641975308641973,0,0,0.08641975308641973,43.12345679012344,0)" xlink:href="#G"/></g><path fill="#3a414a" d="M30-248c87 1 191-15 191 75 0 78-77 80-158 76V0H30v-248zm33 125c57 0 124 11 124-50 0-59-68-47-124-48v98" id="H"/><path fill="#3a414a" d="M114-163C36-179 61-72 57 0H25l-1-190h30c1 12-1 29 2 39 6-27 23-49 58-41v29" id="I"/><path fill="#3a414a" d="M100-194c62-1 85 37 85 99 1 63-27 99-86 99S16-35 15-95c0-66 28-99 85-99zM99-20c44 1 53-31 53-75 0-43-8-75-51-75s-53 32-53 75 10 74 51 75" id="J"/><path fill="#3a414a" d="M85-194c31 0 48 13 60 33l-1-100h32l1 261h-30c-2-10 0-23-3-31C134-8 116 4 85 4 32 4 16-35 15-94c0-66 23-100 70-100zm9 24c-40 0-46 34-46 75 0 40 6 74 45 74 42 0 51-32 51-76 0-42-9-74-50-73" id="K"/><path fill="#3a414a" d="M84 4C-5 8 30-112 23-190h32v120c0 31 7 50 39 49 72-2 45-101 50-169h31l1 190h-30c-1-10 1-25-2-33-11 22-28 36-60 37" id="L"/><path fill="#3a414a" d="M96-169c-40 0-48 33-48 73s9 75 48 75c24 0 41-14 43-38l32 2c-6 37-31 61-74 61-59 0-76-41-82-99-10-93 101-131 147-64 4 7 5 14 7 22l-32 3c-4-21-16-35-41-35" id="M"/><path fill="#3a414a" d="M59-47c-2 24 18 29 38 22v24C64 9 27 4 27-40v-127H5v-23h24l9-43h21v43h35v23H59v120" id="N"/><g id="c"><use transform="matrix(0.08641975308641973,0,0,0.08641975308641973,0,0)" xlink:href="#H"/><use transform="matrix(0.08641975308641973,0,0,0.08641975308641973,20.740740740740737,0)" xlink:href="#I"/><use transform="matrix(0.08641975308641973,0,0,0.08641975308641973,31.024691358024686,0)" xlink:href="#J"/><use transform="matrix(0.08641975308641973,0,0,0.08641975308641973,48.30864197530863,0)" xlink:href="#K"/><use transform="matrix(0.08641975308641973,0,0,0.08641975308641973,65.59259259259258,0)" xlink:href="#L"/><use transform="matrix(0.08641975308641973,0,0,0.08641975308641973,82.87654320987653,0)" xlink:href="#M"/><use transform="matrix(0.08641975308641973,0,0,0.08641975308641973,98.4320987654321,0)" xlink:href="#N"/></g><path fill="#333" d="M133-34C117-15 103 5 69 4 32 3 11-16 11-54c-1-60 55-63 116-61 1-26-3-47-28-47-18 1-26 9-28 27l-52-2c7-38 36-58 82-57s74 22 75 68l1 82c-1 14 12 18 25 15v27c-30 8-71 5-69-32zm-48 3c29 0 43-24 42-57-32 0-66-3-65 30 0 17 8 27 23 27" id="O"/><path fill="#333" d="M25 0v-261h50V0H25" id="P"/><path fill="#333" d="M25-224v-37h50v37H25zM25 0v-190h50V0H25" id="Q"/><path fill="#333" d="M195-6C206 82 75 100 31 46c-4-6-6-13-8-21l49-6c3 16 16 24 34 25 40 0 42-37 40-79-11 22-30 35-61 35-53 0-70-43-70-97 0-56 18-96 73-97 30 0 46 14 59 34l2-30h47zm-90-29c32 0 41-27 41-63 0-35-9-62-40-62-32 0-39 29-40 63 0 36 9 62 39 62" id="R"/><path fill="#333" d="M135-194c87-1 58 113 63 194h-50c-7-57 23-157-34-157-59 0-34 97-39 157H25l-1-190h47c2 12-1 28 3 38 12-26 28-41 61-42" id="S"/><g id="d"><use transform="matrix(0.04938271604938272,0,0,0.04938271604938272,0,0)" xlink:href="#O"/><use transform="matrix(0.04938271604938272,0,0,0.04938271604938272,9.876543209876544,0)" xlink:href="#P"/><use transform="matrix(0.04938271604938272,0,0,0.04938271604938272,14.814814814814817,0)" xlink:href="#Q"/><use transform="matrix(0.04938271604938272,0,0,0.04938271604938272,19.75308641975309,0)" xlink:href="#R"/><use transform="matrix(0.04938271604938272,0,0,0.04938271604938272,30.567901234567906,0)" xlink:href="#S"/></g><path fill="#333" d="M137-138c1-29-70-34-71-4 15 46 118 7 119 86 1 83-164 76-172 9l43-7c4 19 20 25 44 25 33 8 57-30 24-41C81-84 22-81 20-136c-2-80 154-74 161-7" id="T"/><path fill="#333" d="M114-157C55-157 80-60 75 0H25v-261h50l-1 109c12-26 28-41 61-42 86-1 58 113 63 194h-50c-7-57 23-157-34-157" id="U"/><path fill="#333" d="M121-226c-27-7-43 5-38 36h38v33H83V0H34v-157H6v-33h28c-9-59 32-81 87-68v32" id="V"/><path fill="#333" d="M115-3C79 11 28 4 28-45v-112H4v-33h27l15-45h31v45h36v33H77v99c-1 23 16 31 38 25v30" id="W"/><g id="e"><use transform="matrix(0.04938271604938272,0,0,0.04938271604938272,0,0)" xlink:href="#T"/><use transform="matrix(0.04938271604938272,0,0,0.04938271604938272,9.876543209876544,0)" xlink:href="#U"/><use transform="matrix(0.04938271604938272,0,0,0.04938271604938272,20.69135802469136,0)" xlink:href="#Q"/><use transform="matrix(0.04938271604938272,0,0,0.04938271604938272,25.629629629629633,0)" xlink:href="#V"/><use transform="matrix(0.04938271604938272,0,0,0.04938271604938272,31.506172839506174,0)" xlink:href="#W"/></g><path fill="#333" d="M84 4C32 4 15-41 15-95c0-55 18-99 73-99 29 0 47 12 58 34l2-30h48l-1 265h-49V-32C136-9 114 4 84 4zm21-34c32 0 41-29 41-66 0-36-9-64-40-64-33 0-39 30-40 65 0 43 13 65 39 65" id="X"/><use transform="matrix(0.07407407407407407,0,0,0.07407407407407407,0,0)" xlink:href="#X" id="f"/><path fill="#333" d="M110-194c64 0 96 36 96 99 0 64-35 99-97 99-61 0-95-36-95-99 0-62 34-99 96-99zm-1 164c35 0 45-28 45-65 0-40-10-65-43-65-34 0-45 26-45 65 0 36 10 65 43 65" id="Y"/><use transform="matrix(0.07407407407407407,0,0,0.07407407407407407,0,0)" xlink:href="#Y" id="g"/><use transform="matrix(0.07407407407407407,0,0,0.07407407407407407,0,0)" xlink:href="#R" id="h"/><path fill="#333" d="M25-224v-37h50v37H25zM75 22c2 45-34 59-81 51V38c22 5 31-5 31-27v-201h50V22" id="Z"/><path fill="#333" d="M220-157c-53 9-28 100-34 157h-49v-107c1-27-5-49-29-50C55-147 81-57 75 0H25l-1-190h47c2 12-1 28 3 38 10-53 101-56 108 0 13-22 24-43 59-42 82 1 51 116 57 194h-49v-107c-1-25-5-48-29-50" id="aa"/><g id="i"><use transform="matrix(0.04938271604938272,0,0,0.04938271604938272,0,0)" xlink:href="#Z"/><use transform="matrix(0.04938271604938272,0,0,0.04938271604938272,4.938271604938272,0)" xlink:href="#O"/><use transform="matrix(0.04938271604938272,0,0,0.04938271604938272,14.814814814814817,0)" xlink:href="#aa"/></g><path fill="#333" d="M135-150c-39-12-60 13-60 57V0H25l-1-190h47c2 13-1 29 3 40 6-28 27-53 61-41v41" id="ab"/><g id="j"><use transform="matrix(0.04938271604938272,0,0,0.04938271604938272,0,0)" xlink:href="#V"/><use transform="matrix(0.04938271604938272,0,0,0.04938271604938272,5.8765432098765435,0)" xlink:href="#Y"/><use transform="matrix(0.04938271604938272,0,0,0.04938271604938272,16.691358024691358,0)" xlink:href="#ab"/></g><path fill="#333" d="M240-174c0 40-23 61-54 70L253 0h-59l-57-94H76V0H24v-248c93 4 217-23 216 74zM76-134c48-2 112 12 112-38 0-48-66-32-112-35v73" id="ac"/><path fill="#333" d="M136-208V0H84v-208H4v-40h212v40h-80" id="ad"/><path fill="#333" d="M140-251c80 0 125 45 125 126S219 4 139 4C58 4 15-44 15-125s44-126 125-126zm-1 214c52 0 73-35 73-88 0-50-21-86-72-86-52 0-73 35-73 86s22 88 72 88" id="ae"/><g id="k"><use transform="matrix(0.04938271604938272,0,0,0.04938271604938272,0,0)" xlink:href="#ac"/><use transform="matrix(0.04938271604938272,0,0,0.04938271604938272,12.790123456790125,0)" xlink:href="#ad"/><use transform="matrix(0.04938271604938272,0,0,0.04938271604938272,23.25925925925926,0)" xlink:href="#ae"/></g><path fill="#3a414a" d="M140-251c81 0 123 46 123 126C263-46 219 4 140 4 59 4 17-45 17-125s42-126 123-126zm0 227c63 0 89-41 89-101s-29-99-89-99c-61 0-89 39-89 99S79-25 140-24" id="af"/><path fill="#3a414a" d="M106-169C34-169 62-67 57 0H25v-261h32l-1 103c12-21 28-36 61-36 89 0 53 116 60 194h-32v-121c2-32-8-49-39-48" id="ag"/><path fill="#3a414a" d="M100-194c63 0 86 42 84 106H49c0 40 14 67 53 68 26 1 43-12 49-29l28 8c-11 28-37 45-77 45C44 4 14-33 15-96c1-61 26-98 85-98zm52 81c6-60-76-77-97-28-3 7-6 17-6 28h103" id="ah"/><g id="l"><use transform="matrix(0.08641975308641973,0,0,0.08641975308641973,0,0)" xlink:href="#af"/><use transform="matrix(0.08641975308641973,0,0,0.08641975308641973,24.197530864197525,0)" xlink:href="#N"/><use transform="matrix(0.08641975308641973,0,0,0.08641975308641973,32.8395061728395,0)" xlink:href="#ag"/><use transform="matrix(0.08641975308641973,0,0,0.08641975308641973,50.12345679012345,0)" xlink:href="#ah"/><use transform="matrix(0.08641975308641973,0,0,0.08641975308641973,67.40740740740739,0)" xlink:href="#I"/></g><path fill="#3a414a" d="M87 75C49 33 22-17 22-94c0-76 28-126 65-167h31c-38 41-64 92-64 168S80 34 118 75H87" id="ai"/><path fill="#3a414a" d="M135-143c-3-34-86-38-87 0 15 53 115 12 119 90S17 21 10-45l28-5c4 36 97 45 98 0-10-56-113-15-118-90-4-57 82-63 122-42 12 7 21 19 24 35" id="aj"/><path fill="#3a414a" d="M33-261c38 41 65 92 65 168S71 34 33 75H2C39 34 66-17 66-93S39-220 2-261h31" id="ak"/><g id="m"><use transform="matrix(0.08641975308641973,0,0,0.08641975308641973,0,0)" xlink:href="#H"/><use transform="matrix(0.08641975308641973,0,0,0.08641975308641973,20.740740740740737,0)" xlink:href="#I"/><use transform="matrix(0.08641975308641973,0,0,0.08641975308641973,31.024691358024686,0)" xlink:href="#J"/><use transform="matrix(0.08641975308641973,0,0,0.08641975308641973,48.30864197530863,0)" xlink:href="#K"/><use transform="matrix(0.08641975308641973,0,0,0.08641975308641973,65.59259259259258,0)" xlink:href="#L"/><use transform="matrix(0.08641975308641973,0,0,0.08641975308641973,82.87654320987653,0)" xlink:href="#M"/><use transform="matrix(0.08641975308641973,0,0,0.08641975308641973,98.4320987654321,0)" xlink:href="#N"/><use transform="matrix(0.08641975308641973,0,0,0.08641975308641973,107.07407407407408,0)" xlink:href="#ai"/><use transform="matrix(0.08641975308641973,0,0,0.08641975308641973,117.35802469135803,0)" xlink:href="#aj"/><use transform="matrix(0.08641975308641973,0,0,0.08641975308641973,132.91358024691357,0)" xlink:href="#ak"/></g><path fill="#3a414a" d="M101-251c68 0 85 55 85 127S166 4 100 4C33 4 14-52 14-124c0-73 17-127 87-127zm-1 229c47 0 54-49 54-102s-4-102-53-102c-51 0-55 48-55 102 0 53 5 102 54 102" id="al"/><use transform="matrix(0.08641975308641973,0,0,0.08641975308641973,0,0)" xlink:href="#al" id="n"/><path fill="#54c45e" d="M160-131c35 5 61 23 61 61C221 17 115-2 30 0v-248c76 3 177-17 177 60 0 33-19 50-47 57zm-97-11c50-1 110 9 110-42 0-47-63-36-110-37v79zm0 115c55-2 124 14 124-45 0-56-70-42-124-44v89" id="am"/><path fill="#54c45e" d="M24-231v-30h32v30H24zM24 0v-190h32V0H24" id="an"/><path fill="#54c45e" d="M59-47c-2 24 18 29 38 22v24C64 9 27 4 27-40v-127H5v-23h24l9-43h21v43h35v23H59v120" id="ao"/><g id="o"><use transform="matrix(0.08641975308641973,0,0,0.08641975308641973,0,0)" xlink:href="#am"/><use transform="matrix(0.08641975308641973,0,0,0.08641975308641973,20.740740740740737,0)" xlink:href="#an"/><use transform="matrix(0.08641975308641973,0,0,0.08641975308641973,27.567901234567895,0)" xlink:href="#ao"/></g><path fill="#54c45e" d="M266 0h-40l-56-210L115 0H75L2-248h35L96-30l15-64 43-154h32l59 218 59-218h35" id="ap"/><path fill="#54c45e" d="M100-194c63 0 86 42 84 106H49c0 40 14 67 53 68 26 1 43-12 49-29l28 8c-11 28-37 45-77 45C44 4 14-33 15-96c1-61 26-98 85-98zm52 81c6-60-76-77-97-28-3 7-6 17-6 28h103" id="aq"/><path fill="#54c45e" d="M177-190C167-65 218 103 67 71c-23-6-38-20-44-43l32-5c15 47 100 32 89-28v-30C133-14 115 1 83 1 29 1 15-40 15-95c0-56 16-97 71-98 29-1 48 16 59 35 1-10 0-23 2-32h30zM94-22c36 0 50-32 50-73 0-42-14-75-50-75-39 0-46 34-46 75s6 73 46 73" id="ar"/><path fill="#54c45e" d="M106-169C34-169 62-67 57 0H25v-261h32l-1 103c12-21 28-36 61-36 89 0 53 116 60 194h-32v-121c2-32-8-49-39-48" id="as"/><g id="p"><use transform="matrix(0.08641975308641973,0,0,0.08641975308641973,0,0)" xlink:href="#ap"/><use transform="matrix(0.08641975308641973,0,0,0.08641975308641973,28.69135802469135,0)" xlink:href="#aq"/><use transform="matrix(0.08641975308641973,0,0,0.08641975308641973,45.975308641975296,0)" xlink:href="#an"/><use transform="matrix(0.08641975308641973,0,0,0.08641975308641973,52.80246913580246,0)" xlink:href="#ar"/><use transform="matrix(0.08641975308641973,0,0,0.08641975308641973,70.0864197530864,0)" xlink:href="#as"/><use transform="matrix(0.08641975308641973,0,0,0.08641975308641973,87.37037037037035,0)" xlink:href="#ao"/></g><path fill="#54c45e" d="M101-251c68 0 84 54 84 127C185-50 166 4 99 4S15-52 14-124c-1-75 17-127 87-127zm-1 216c37-5 36-46 36-89s4-89-36-89c-39 0-36 45-36 89 0 43-3 85 36 89" id="at"/><use transform="matrix(0.0864197530864197,0,0,0.0864197530864197,0,0)" xlink:href="#at" id="q"/><path fill="#54c45e" d="M23 0v-37h61v-169l-59 37v-38l62-41h46v211h57V0H23" id="au"/><use transform="matrix(0.0864197530864197,0,0,0.0864197530864197,0,0)" xlink:href="#au" id="r"/><path fill="#54c45e" d="M14-72v-43h91v43H14" id="av"/><path fill="#54c45e" d="M84 4C32 4 15-41 15-95c0-55 18-99 73-99 29 0 47 12 58 34l2-30h48l-1 265h-49V-32C136-9 114 4 84 4zm21-34c32 0 41-29 41-66 0-36-9-64-40-64-33 0-39 30-40 65 0 43 13 65 39 65" id="aw"/><path fill="#54c45e" d="M125-100v72H85v-72H15v-39h70v-72h40v72h71v39h-71" id="ax"/><path fill="#54c45e" d="M195-6C206 82 75 100 31 46c-4-6-6-13-8-21l49-6c3 16 16 24 34 25 40 0 42-37 40-79-11 22-30 35-61 35-53 0-70-43-70-97 0-56 18-96 73-97 30 0 46 14 59 34l2-30h47zm-90-29c32 0 41-27 41-63 0-35-9-62-40-62-32 0-39 29-40 63 0 36 9 62 39 62" id="ay"/><g id="s"><use transform="matrix(0.0864197530864197,0,0,0.0864197530864197,0,0)" xlink:href="#av"/><use transform="matrix(0.0864197530864197,0,0,0.0864197530864197,10.283950617283946,0)" xlink:href="#aw"/><use transform="matrix(0.0864197530864197,0,0,0.0864197530864197,29.209876543209862,0)" xlink:href="#ax"/><use transform="matrix(0.0864197530864197,0,0,0.0864197530864197,47.358024691358,0)" xlink:href="#au"/><use transform="matrix(0.0864197530864197,0,0,0.0864197530864197,64.64197530864195,0)" xlink:href="#av"/><use transform="matrix(0.0864197530864197,0,0,0.0864197530864197,74.9259259259259,0)" xlink:href="#ay"/></g><path fill="#3a414a" d="M220-157c-53 9-28 100-34 157h-49v-107c1-27-5-49-29-50C55-147 81-57 75 0H25l-1-190h47c2 12-1 28 3 38 10-53 101-56 108 0 13-22 24-43 59-42 82 1 51 116 57 194h-49v-107c-1-25-5-48-29-50" id="az"/><path fill="#3a414a" d="M133-34C117-15 103 5 69 4 32 3 11-16 11-54c-1-60 55-63 116-61 1-26-3-47-28-47-18 1-26 9-28 27l-52-2c7-38 36-58 82-57s74 22 75 68l1 82c-1 14 12 18 25 15v27c-30 8-71 5-69-32zm-48 3c29 0 43-24 42-57-32 0-66-3-65 30 0 17 8 27 23 27" id="aA"/><path fill="#3a414a" d="M144 0l-44-69L55 0H2l70-98-66-92h53l41 62 40-62h54l-67 91 71 99h-54" id="aB"/><path fill="#3a414a" d="M-4 44V30h207v14H-4" id="aC"/><path fill="#3a414a" d="M185-48c-13 30-37 53-82 52C43 2 14-33 14-96s30-98 90-98c62 0 83 45 84 108H66c0 31 8 55 39 56 18 0 30-7 34-22zm-45-69c5-46-57-63-70-21-2 6-4 13-4 21h74" id="aD"/><path fill="#3a414a" d="M135-194c53 0 70 44 70 98 0 56-19 98-73 100-31 1-45-17-59-34 3 33 2 69 2 105H25l-1-265h48c2 10 0 23 3 31 11-24 29-35 60-35zM114-30c33 0 39-31 40-66 0-38-9-64-40-64-56 0-55 130 0 130" id="aE"/><g id="t"><use transform="matrix(0.04938271604938272,0,0,0.04938271604938272,0,0)" xlink:href="#az"/><use transform="matrix(0.04938271604938272,0,0,0.04938271604938272,15.80246913580247,0)" xlink:href="#aA"/><use transform="matrix(0.04938271604938272,0,0,0.04938271604938272,25.679012345679016,0)" xlink:href="#aB"/><use transform="matrix(0.04938271604938272,0,0,0.04938271604938272,35.55555555555556,0)" xlink:href="#aC"/><use transform="matrix(0.04938271604938272,0,0,0.04938271604938272,45.4320987654321,0)" xlink:href="#aD"/><use transform="matrix(0.04938271604938272,0,0,0.04938271604938272,55.308641975308646,0)" xlink:href="#aB"/><use transform="matrix(0.04938271604938272,0,0,0.04938271604938272,65.18518518518519,0)" xlink:href="#aE"/></g><path fill="#3a414a" d="M67-93c0 74 22 123 53 168H70C40 30 18-18 18-93s22-123 52-168h50c-32 44-53 94-53 168" id="aF"/><path fill="#3a414a" d="M135-150c-39-12-60 13-60 57V0H25l-1-190h47c2 13-1 29 3 40 6-28 27-53 61-41v41" id="aG"/><path fill="#3a414a" d="M121-226c-27-7-43 5-38 36h38v33H83V0H34v-157H6v-33h28c-9-59 32-81 87-68v32" id="aH"/><path fill="#3a414a" d="M135-194c87-1 58 113 63 194h-50c-7-57 23-157-34-157-59 0-34 97-39 157H25l-1-190h47c2 12-1 28 3 38 12-26 28-41 61-42" id="aI"/><path fill="#3a414a" d="M190-63c-7 42-38 67-86 67-59 0-84-38-90-98-12-110 154-137 174-36l-49 2c-2-19-15-32-35-32-30 0-35 28-38 64-6 74 65 87 74 30" id="aJ"/><g id="u"><use transform="matrix(0.04938271604938272,0,0,0.04938271604938272,0,0)" xlink:href="#aF"/><use transform="matrix(0.04938271604938272,0,0,0.04938271604938272,5.8765432098765435,0)" xlink:href="#aG"/><use transform="matrix(0.04938271604938272,0,0,0.04938271604938272,12.790123456790125,0)" xlink:href="#aD"/><use transform="matrix(0.04938271604938272,0,0,0.04938271604938272,22.666666666666668,0)" xlink:href="#aH"/><use transform="matrix(0.04938271604938272,0,0,0.04938271604938272,28.543209876543212,0)" xlink:href="#aD"/><use transform="matrix(0.04938271604938272,0,0,0.04938271604938272,38.41975308641976,0)" xlink:href="#aG"/><use transform="matrix(0.04938271604938272,0,0,0.04938271604938272,45.33333333333334,0)" xlink:href="#aD"/><use transform="matrix(0.04938271604938272,0,0,0.04938271604938272,55.209876543209894,0)" xlink:href="#aI"/><use transform="matrix(0.04938271604938272,0,0,0.04938271604938272,66.0246913580247,0)" xlink:href="#aJ"/><use transform="matrix(0.04938271604938272,0,0,0.04938271604938272,75.90123456790124,0)" xlink:href="#aD"/></g><path fill="#3a414a" d="M110-194c64 0 96 36 96 99 0 64-35 99-97 99-61 0-95-36-95-99 0-62 34-99 96-99zm-1 164c35 0 45-28 45-65 0-40-10-65-43-65-34 0-45 26-45 65 0 36 10 65 43 65" id="aK"/><path fill="#3a414a" d="M115-3C79 11 28 4 28-45v-112H4v-33h27l15-45h31v45h36v33H77v99c-1 23 16 31 38 25v30" id="aL"/><path fill="#3a414a" d="M102-93c0 74-22 123-52 168H0C30 29 54-18 53-93c0-74-22-123-53-168h50c30 45 52 94 52 168" id="aM"/><g id="v"><use transform="matrix(0.04938271604938272,0,0,0.04938271604938272,0,0)" xlink:href="#aD"/><use transform="matrix(0.04938271604938272,0,0,0.04938271604938272,9.876543209876544,0)" xlink:href="#aB"/><use transform="matrix(0.04938271604938272,0,0,0.04938271604938272,19.75308641975309,0)" xlink:href="#aE"/><use transform="matrix(0.04938271604938272,0,0,0.04938271604938272,30.567901234567906,0)" xlink:href="#aK"/><use transform="matrix(0.04938271604938272,0,0,0.04938271604938272,41.38271604938272,0)" xlink:href="#aI"/><use transform="matrix(0.04938271604938272,0,0,0.04938271604938272,52.19753086419754,0)" xlink:href="#aD"/><use transform="matrix(0.04938271604938272,0,0,0.04938271604938272,62.074074074074076,0)" xlink:href="#aI"/><use transform="matrix(0.04938271604938272,0,0,0.04938271604938272,72.8888888888889,0)" xlink:href="#aL"/><use transform="matrix(0.04938271604938272,0,0,0.04938271604938272,78.76543209876544,0)" xlink:href="#aM"/></g><path fill="#333" d="M23 0v-37h61v-169l-59 37v-38l62-41h46v211h57V0H23" id="aN"/><use transform="matrix(0.07407407407407407,0,0,0.07407407407407407,0,0)" xlink:href="#aN" id="w"/><path fill="#3a414a" d="M117-194c89-4 53 116 60 194h-32v-121c0-31-8-49-39-48C34-167 62-67 57 0H25l-1-190h30c1 10-1 24 2 32 11-22 29-35 61-36" id="aO"/><g id="x"><use transform="matrix(0.08641975308641973,0,0,0.08641975308641973,0,0)" xlink:href="#F"/><use transform="matrix(0.08641975308641973,0,0,0.08641975308641973,17.283950617283946,0)" xlink:href="#K"/><use transform="matrix(0.08641975308641973,0,0,0.08641975308641973,34.56790123456789,0)" xlink:href="#K"/><use transform="matrix(0.08641975308641973,0,0,0.08641975308641973,51.85185185185183,0)" xlink:href="#ah"/><use transform="matrix(0.08641975308641973,0,0,0.08641975308641973,69.13580246913578,0)" xlink:href="#aO"/><use transform="matrix(0.08641975308641973,0,0,0.08641975308641973,86.41975308641973,0)" xlink:href="#K"/></g><path fill="#3a414a" d="M205 0l-28-72H64L36 0H1l101-248h38L239 0h-34zm-38-99l-47-123c-12 45-31 82-46 123h93" id="aP"/><g id="y"><use transform="matrix(0.08641975308641973,0,0,0.08641975308641973,0,0)" xlink:href="#aP"/><use transform="matrix(0.08641975308641973,0,0,0.08641975308641973,20.740740740740737,0)" xlink:href="#K"/><use transform="matrix(0.08641975308641973,0,0,0.08641975308641973,38.02469135802468,0)" xlink:href="#K"/><use transform="matrix(0.08641975308641973,0,0,0.08641975308641973,55.30864197530863,0)" xlink:href="#ah"/><use transform="matrix(0.08641975308641973,0,0,0.08641975308641973,72.59259259259258,0)" xlink:href="#aO"/><use transform="matrix(0.08641975308641973,0,0,0.08641975308641973,89.87654320987653,0)" xlink:href="#K"/></g><path fill="#3a414a" d="M210-169c-67 3-38 105-44 169h-31v-121c0-29-5-50-35-48C34-165 62-65 56 0H25l-1-190h30c1 10-1 24 2 32 10-44 99-50 107 0 11-21 27-35 58-36 85-2 47 119 55 194h-31v-121c0-29-5-49-35-48" id="aQ"/><g id="z"><use transform="matrix(0.08641975308641973,0,0,0.08641975308641973,0,0)" xlink:href="#ai"/><use transform="matrix(0.08641975308641973,0,0,0.08641975308641973,10.28395061728395,0)" xlink:href="#aQ"/><use transform="matrix(0.08641975308641973,0,0,0.08641975308641973,36.12345679012345,0)" xlink:href="#F"/><use transform="matrix(0.08641975308641973,0,0,0.08641975308641973,53.40740740740738,0)" xlink:href="#G"/></g><path fill="#3a414a" d="M115-194c55 1 70 41 70 98S169 2 115 4C84 4 66-9 55-30l1 105H24l-1-265h31l2 30c10-21 28-34 59-34zm-8 174c40 0 45-34 45-75s-6-73-45-74c-42 0-51 32-51 76 0 43 10 73 51 73" id="aR"/><g id="A"><use transform="matrix(0.08641975308641973,0,0,0.08641975308641973,0,0)" xlink:href="#ah"/><use transform="matrix(0.08641975308641973,0,0,0.08641975308641973,17.283950617283946,0)" xlink:href="#G"/><use transform="matrix(0.08641975308641973,0,0,0.08641975308641973,32.8395061728395,0)" xlink:href="#aR"/><use transform="matrix(0.08641975308641973,0,0,0.08641975308641973,50.12345679012345,0)" xlink:href="#ak"/></g></defs></g></svg>